<?xml version="1.0" encoding="UTF-8" standalone="no"?>
<svg
   version="1.1"
   id="svg1"
   width="290.02399"
   height="290.02399"
   viewBox="0 0 290.02399 290.02399"
   xmlns="http://www.w3.org/2000/svg">
  <defs>
    <linearGradient
       x1="0"
       y1="0"
       x2="1"
       y2="0"
       gradientUnits="userSpaceOnUse"
       gradientTransform="matrix(-540.23578,-1011.9342,-1011.9342,540.23578,307.14841,565.44836)"
       spreadMethod="pad"
       id="linearGradient206">
      <stop
         style="stop-opacity:1;stop-color:#e72d1d"
         offset="0" />
      <stop
         style="stop-opacity:1;stop-color:#4b1614"
         offset="1" />
    </linearGradient>
    <linearGradient
       x1="0"
       y1="0"
       x2="1"
       y2="0"
       gradientUnits="userSpaceOnUse"
       gradientTransform="matrix(-540.23578,-1011.9342,-1011.9342,540.23578,316.06024,560.69067)"
       spreadMethod="pad"
       id="linearGradient208">
      <stop
         style="stop-opacity:1;stop-color:#e72d1d"
         offset="0" />
      <stop
         style="stop-opacity:1;stop-color:#4b1614"
         offset="1" />
    </linearGradient>
    <linearGradient
       x1="0"
       y1="0"
       x2="1"
       y2="0"
       gradientUnits="userSpaceOnUse"
       gradientTransform="matrix(-540.23578,-1011.9342,-1011.9342,540.23578,366.5838,533.71796)"
       spreadMethod="pad"
       id="linearGradient210">
      <stop
         style="stop-opacity:1;stop-color:#e72d1d"
         offset="0" />
      <stop
         style="stop-opacity:1;stop-color:#4b1614"
         offset="1" />
    </linearGradient>
    <linearGradient
       x1="0"
       y1="0"
       x2="1"
       y2="0"
       gradientUnits="userSpaceOnUse"
       gradientTransform="matrix(-540.23578,-1011.9342,-1011.9342,540.23578,417.4158,506.58054)"
       spreadMethod="pad"
       id="linearGradient212">
      <stop
         style="stop-opacity:1;stop-color:#e72d1d"
         offset="0" />
      <stop
         style="stop-opacity:1;stop-color:#4b1614"
         offset="1" />
    </linearGradient>
  </defs>
  <g>
    <path
       d="M 67.173,95.133 H 44.955 l 18.931,29.516 z"
       transform="matrix(1.3333333,0,0,-1.3333333,0,290.024)"
       style="fill:url(#linearGradient206);stroke:none" />
    <path
       d="M 108.759,217.518 C 48.692,217.518 0,168.826 0,108.759 v 0 C 0,103.222 0.41,97.793 1.214,92.488 v 0 l 54.857,79.898 h 40.277 l 14.157,-94.179 0.068,0.26 69.273,59.725 h -51.214 l 9.028,33.334 h 59.931 c -19.709,27.825 -52.143,45.992 -88.832,45.992 z"
       transform="matrix(1.3333333,0,0,-1.3333333,0,290.024)"
       style="fill:url(#linearGradient208);stroke:none" />
    <path
       d="M 26.896,66.314 16.776,50.71 C 36.049,20.24 70.037,0 108.759,0 v 0 c 38.422,0 72.192,19.927 91.532,50.001 v 0 H 71.524 l -2.087,16.313 z"
       transform="matrix(1.3333333,0,0,-1.3333333,0,290.024)"
       style="fill:url(#linearGradient210);stroke:none" />
    <path
       d="m 168.39,83.335 h 46.141 c 1.95,8.157 2.987,16.668 2.987,25.424 v 0 c 0,5.374 -0.396,10.666 -1.145,15.822 v 0 z"
       transform="matrix(1.3333333,0,0,-1.3333333,0,290.024)"
       style="fill:url(#linearGradient212);stroke:none" />
  </g>
</svg>